#tb 0: 1/25
#media_type 0: video
#codec_id 0: rawvideo
#dimensions 0: 416x240
#sar 0: 0/1
0,          0,          0,        1,   299520, 0x27dd1b2d
0,          1,          1,        1,   299520, 0x52e867b2
0,          2,          2,        1,   299520, 0xa92e81d0
0,          3,          3,        1,   299520, 0xb426b45b
0,          4,          4,        1,   299520, 0x193dc7ab
0,          5,          5,        1,   299520, 0x2de07de7
0,          6,          6,        1,   299520, 0xddbf3031
0,          7,          7,        1,   299520, 0xc28a5a6a
0,          8,          8,        1,   299520, 0x97394e00
0,          9,          9,        1,   299520, 0xace5f7f1
0,         10,         10,        1,   299520, 0xcfb8f84d
0,         11,         11,        1,   299520, 0xb8ef5236
0,         12,         12,        1,   299520, 0xa5e14ea9
0,         13,         13,        1,   299520, 0x30d62a71
0,         14,         14,        1,   299520, 0xb07129e5
0,         15,         15,        1,   299520, 0x85e9c08d
0,         16,         16,        1,   299520, 0x068e1753
0,         17,         17,        1,   299520, 0x2e0bbf9c
0,         18,         18,        1,   299520, 0xb0213afe
0,         19,         19,        1,   299520, 0x2c993d36
0,         20,         20,        1,   299520, 0x79f7d0c0
0,         21,         21,        1,   299520, 0xa75d835b
0,         22,         22,        1,   299520, 0x5497fa81
0,         23,         23,        1,   299520, 0x33fc772c
0,         24,         24,        1,   299520, 0xd7d9a6bd
0,         25,         25,        1,   299520, 0xe6b6c262
0,         26,         26,        1,   299520, 0x2daf6987
0,         27,         27,        1,   299520, 0x928e5295
0,         28,         28,        1,   299520, 0x428a392f
0,         29,         29,        1,   299520, 0xff9714b1
0,         30,         30,        1,   299520, 0x9f24b36f
0,         31,         31,        1,   299520, 0x4972405a
0,         32,         32,        1,   299520, 0xc9acdc15
0,         33,         33,        1,   299520, 0x6ff81a68
0,         34,         34,        1,   299520, 0x951265bd
0,         35,         35,        1,   299520, 0x32e209ec
0,         36,         36,        1,   299520, 0xee22557b
0,         37,         37,        1,   299520, 0xaa71222d
0,         38,         38,        1,   299520, 0x039bd94c
0,         39,         39,        1,   299520, 0x2dca58d2
0,         40,         40,        1,   299520, 0x8603c0b2
0,         41,         41,        1,   299520, 0xf1e77de0
0,         42,         42,        1,   299520, 0xa84f9f09
0,         43,         43,        1,   299520, 0xd0719f99
0,         44,         44,        1,   299520, 0x97c2ef64
0,         45,         45,        1,   299520, 0x24e44c6b
0,         46,         46,        1,   299520, 0xf98ee710
0,         47,         47,        1,   299520, 0x1e9329a0
0,         48,         48,        1,   299520, 0x36eaab8c
0,         49,         49,        1,   299520, 0x442bf6cd
0,         50,         50,        1,   299520, 0xa8060bde
0,         51,         51,        1,   299520, 0x16a4f18b
0,         52,         52,        1,   299520, 0x5ea5fd61
0,         53,         53,        1,   299520, 0x8ff17e20
0,         54,         54,        1,   299520, 0x97bb99b7
0,         55,         55,        1,   299520, 0x26387fec
0,         56,         56,        1,   299520, 0x77bb8af0
0,         57,         57,        1,   299520, 0xf1efa9ae
0,         58,         58,        1,   299520, 0xa05e64e5
0,         59,         59,        1,   299520, 0xb5d66d2a
0,         60,         60,        1,   299520, 0xeb5b0ecf
0,         61,         61,        1,   299520, 0xb1175e7d
0,         62,         62,        1,   299520, 0xc41b6b9c
0,         63,         63,        1,   299520, 0xc5108eed
